# xmcd
#
# Track frame offsets:
#	150
#	12160
#	23192
#	37447
#	50260
#	59675
#	75997
#	88200
#	101747
#	112547
#	123925
#	139780
#	150530
#	161797
#	174557
#	187695
#	200927
#	213322
#	227040
#	243387
#	255525
#	268612
#	281655
#	293150
#
# Disc length: 4138 seconds
#
# Revision: 3
# Processed by: cddbd v1.5.2PL0 Copyright (c) Steve Scherf et al.
# Submitted via: EZCDAudioConverter 2.1.3.1
#
DISCID=53102818
DTITLE=The Osborne Brothers - Bluegrass Collection
DYEAR=1989
DGENRE=Bluegrass
TTITLE0=Kentucky Waltz
TTITLE1=Pain In My Heart
TTITLE2=Blue Ridge Cabin Home
TTITLE3=When You Are Lonely
TTITLE4=Some Old Day
TTITLE5=I Hear A Sweet Voice Calling
TTITLE6=My Cabin In Caroline
TTITLE7=(It's A Long Way) To The Top Of The World
TTITLE8=Sunny Side Of The Mountain
TTITLE9=Head Over Heels
TTITLE10=Don't That Road Look Rough And Rocky
TTITLE11=I'm Going Back To Old Kentucky
TTITLE12=Your Love Is Like A Flower
TTITLE13=Sweethearts Again
TTITLE14=Little Cabin Hom On The Hill
TTITLE15=No Mother Or Dad
TTITLE16=Toy Heart
TTITLE17=Rank Strangers
TTITLE18=A Vision Of Mother
TTITLE19=Lonesome Day
TTITLE20=My Rose Of Old Kentucky
TTITLE21=This Heart Of Mine (Can Never Say Goodbye)
TTITLE22=Thinking About You
TTITLE23=White Dove
EXTD=
EXTT0=
EXTT1=
EXTT2=
EXTT3=
EXTT4=
EXTT5=
EXTT6=
EXTT7=
EXTT8=
EXTT9=
EXTT10=
EXTT11=
EXTT12=
EXTT13=
EXTT14=
EXTT15=
EXTT16=
EXTT17=
EXTT18=
EXTT19=
EXTT20=
EXTT21=
EXTT22=
EXTT23=
PLAYORDER=
